<svg width="104" height="98" viewBox="0 0 104 98" fill="none" xmlns="http://www.w3.org/2000/svg">
<path fill-rule="evenodd" clip-rule="evenodd" d="M71.2293 22.7814L71.2294 34.9895L63.922 36.8668L63.9219 16.4813C63.9219 13.4122 67.3198 11.5611 69.8984 13.2253L98.4562 31.6563C101.248 33.4582 100.626 37.7081 97.4346 38.6339L15.8367 62.3062L35.1355 75.6484L35.1355 60.2351L42.4429 58.0579L42.4429 82.1939C42.4429 85.3186 38.9344 87.1584 36.3641 85.3814L5.74023 64.2097C3.05455 62.353 3.72817 58.2103 6.86423 57.3005L88.1681 33.7135L71.2293 22.7814Z" fill="#EAEADC"/>
<path fill-rule="evenodd" clip-rule="evenodd" d="M34.5437 45.5754L34.5437 21.0186L42.3815 17.7076L42.3815 43.368L34.5437 45.5754Z" fill="#EAEADC"/>
<path fill-rule="evenodd" clip-rule="evenodd" d="M72.2818 49.0586L72.2818 73.6154L64.444 76.9264L64.444 51.266L72.2818 49.0586Z" fill="#EAEADC"/>
</svg>
