<svg width="458" height="112" viewBox="0 0 458 112" fill="none" xmlns="http://www.w3.org/2000/svg">
<path d="M130.31 88.82C128.554 89.7207 126.602 90.1718 124.629 90.1335L109.895 90.0059C108.221 89.9992 106.566 89.6513 105.031 88.9832C102.018 87.6952 99.6354 85.2713 98.3985 82.2375C97.7587 80.692 97.4396 79.0322 97.4612 77.3596L97.6316 56.9521C97.6277 56.4987 97.7143 56.0493 97.8863 55.6297C98.0583 55.2102 98.3119 54.8295 98.6327 54.5093C98.9484 54.1869 99.3252 53.9305 99.7409 53.7557C100.157 53.5809 100.603 53.4905 101.054 53.4905C101.506 53.4905 101.952 53.5809 102.368 53.7557C102.784 53.9305 103.16 54.1869 103.476 54.5093C103.791 54.8373 104.038 55.2246 104.202 55.6492C104.367 56.0731 104.446 56.5254 104.434 56.9804L104.264 77.3807C104.25 78.1354 104.386 78.8857 104.665 79.5871C104.944 80.2885 105.361 80.9278 105.889 81.4667C106.418 82.0055 107.05 82.4333 107.746 82.7252C108.442 83.0177 109.19 83.1681 109.944 83.1675L124.686 83.2957C125.438 83.3212 126.186 83.1897 126.885 82.91C127.583 82.6298 128.215 82.2075 128.74 81.6698C129.276 81.1376 129.7 80.5033 129.985 79.8041C130.271 79.1049 130.412 78.3557 130.402 77.601L130.573 57.2007C130.568 56.7462 130.654 56.2951 130.826 55.8745C130.998 55.4538 131.252 55.0715 131.574 54.7507C131.886 54.4233 132.263 54.1647 132.681 53.9921C133.1 53.8196 133.55 53.7369 134.002 53.7496C134.462 53.7535 134.917 53.8479 135.34 54.0288C135.763 54.2091 136.146 54.4716 136.467 54.8012C136.788 55.1308 137.04 55.5204 137.21 55.9483C137.379 56.3761 137.461 56.8328 137.453 57.2929L137.12 96.6589C137.123 98.6478 136.707 100.615 135.898 102.432C134.357 105.956 131.52 108.753 127.973 110.242C126.142 111.011 124.172 111.393 122.187 111.365L102.915 111.159C102.463 111.164 102.016 111.075 101.601 110.896C101.186 110.718 100.814 110.454 100.508 110.122C100.196 109.809 99.9501 109.436 99.7842 109.027C99.6188 108.617 99.5361 108.178 99.5417 107.736C99.5383 107.281 99.6255 106.83 99.7986 106.41C99.9717 105.989 100.228 105.607 100.55 105.286C100.861 104.96 101.238 104.701 101.655 104.529C102.072 104.356 102.521 104.273 102.972 104.285L122.243 104.448C123.293 104.473 124.337 104.286 125.314 103.899C126.29 103.51 127.178 102.93 127.924 102.19C128.657 101.467 129.252 100.615 129.678 99.6766C130.132 98.7072 130.374 97.6517 130.388 96.5807L130.452 88.7701L130.31 88.82Z" fill="#D2D2AF"/>
<path d="M143.135 73.7946C143.137 71.1759 143.665 68.5844 144.684 66.1726C145.703 63.7604 147.195 61.5767 149.071 59.7493C150.924 57.9653 153.091 56.5374 155.461 55.5385C157.9 54.4986 160.529 53.9786 163.18 54.0119C165.858 54.018 168.506 54.5813 170.955 55.6667C173.295 56.7028 175.42 58.17 177.218 59.9907C179.008 61.8181 180.428 63.9735 181.401 66.3391C182.399 68.8019 182.901 71.4378 182.878 74.0959C182.855 76.7535 182.307 79.38 181.266 81.8255C180.256 84.1795 178.811 86.3216 177.005 88.1378C175.144 89.9791 172.935 91.4297 170.506 92.4052C168.077 93.3808 165.478 93.8614 162.861 93.8186C160.474 93.8014 158.111 93.3586 155.88 92.5123C153.647 91.6644 151.594 90.4019 149.83 88.7915L149.66 108.517C149.662 108.965 149.574 109.409 149.402 109.823C149.229 110.237 148.976 110.612 148.657 110.927C148.337 111.241 147.957 111.488 147.541 111.653C147.124 111.819 146.678 111.899 146.231 111.89C145.783 111.89 145.339 111.801 144.926 111.628C144.514 111.455 144.139 111.201 143.825 110.882C143.511 110.563 143.264 110.184 143.098 109.768C142.931 109.353 142.85 108.908 142.858 108.46L143.135 73.7946ZM162.874 87.0163C164.628 87.0413 166.368 86.7078 167.988 86.0363C169.542 85.3932 170.96 84.4581 172.163 83.2811C173.363 82.0963 174.326 80.6935 175.003 79.1485C175.688 77.5409 176.049 75.8134 176.063 74.066C176.078 72.3185 175.747 70.5849 175.088 68.9662C174.444 67.4079 173.506 65.9884 172.326 64.7837C171.146 63.5778 169.742 62.6133 168.193 61.9435C166.587 61.2416 164.854 60.8792 163.102 60.8786C161.352 60.8537 159.615 61.1844 157.997 61.8514C154.832 63.1427 152.301 65.6233 150.945 68.7603C150.25 70.3679 149.89 72.0998 149.887 73.8512C149.855 75.6048 150.186 77.345 150.86 78.9638C151.506 80.5192 152.443 81.9371 153.622 83.139C154.803 84.3449 156.206 85.3094 157.755 85.9797C159.372 86.6739 161.115 87.0269 162.874 87.0163Z" fill="#D2D2AF"/>
<path d="M222.863 74.2349C223.304 74.3104 223.725 74.4752 224.1 74.7194C224.475 74.9636 224.796 75.2821 225.043 75.6555C225.516 76.4258 225.696 77.3409 225.547 78.2326C225.087 80.5139 224.223 82.6948 222.998 84.6731C221.819 86.5982 220.323 88.3096 218.574 89.7358C216.819 91.1447 214.842 92.2512 212.723 93.0093C210.541 93.7989 208.234 94.1885 205.913 94.1596C202.459 94.1352 199.07 93.2207 196.072 91.5043C193.381 89.9488 191.092 87.7852 189.389 85.1853C187.686 82.5861 186.616 79.6233 186.265 76.5357C185.664 71.3954 187.105 66.2245 190.277 62.1358C193.2 58.2957 197.426 55.657 202.159 54.717C206.893 53.7764 211.806 54.5993 215.975 57.0299C219.046 58.8029 221.585 61.3678 223.325 64.4576C223.564 64.8355 223.719 65.2606 223.781 65.704C223.842 66.1474 223.808 66.5991 223.679 67.0281C223.442 67.9198 222.867 68.6834 222.075 69.1579L196.711 83.4662C197.921 84.7131 199.37 85.7036 200.971 86.3773C202.546 87.0382 204.234 87.3851 205.942 87.4001C207.464 87.4223 208.977 87.167 210.408 86.647C211.795 86.1526 213.09 85.4328 214.243 84.5172C215.396 83.5799 216.378 82.4512 217.147 81.1799C217.934 79.878 218.494 78.4518 218.802 76.9619C218.966 76.0656 219.476 75.2704 220.222 74.7466C220.597 74.473 221.029 74.2854 221.485 74.1972C221.942 74.109 222.412 74.1217 222.863 74.2349ZM199.608 62.9593C198.353 63.6963 197.222 64.6263 196.256 65.7146C195.309 66.7623 194.546 67.9626 193.998 69.2644C193.455 70.5619 193.124 71.9381 193.018 73.3404C192.905 74.7699 193.02 76.2077 193.359 77.6011L215.308 65.1674C214.096 63.9404 212.646 62.9738 211.047 62.3273C209.468 61.6852 207.781 61.35 206.077 61.3401C204.955 61.3334 203.836 61.4644 202.747 61.7307C201.645 61.9827 200.587 62.3966 199.608 62.9593Z" fill="#D2D2AF"/>
<path d="M336.475 74.945C336.917 75.0199 337.337 75.1847 337.712 75.4294C338.088 75.6736 338.408 75.9921 338.655 76.365C339.129 77.1353 339.308 78.0509 339.16 78.9427C338.699 81.224 337.836 83.4048 336.61 85.3832C335.431 87.3077 333.936 89.0196 332.186 90.4458C330.432 91.8547 328.454 92.9607 326.335 93.7193C324.153 94.509 321.846 94.8985 319.526 94.8697C316.071 94.8447 312.682 93.9302 309.684 92.2138C306.993 90.6589 304.705 88.4946 303.002 85.8954C301.299 83.2961 300.229 80.3333 299.877 77.2457C299.276 72.1054 300.717 66.934 303.89 62.8453C306.812 59.0057 311.039 56.367 315.772 55.4264C320.505 54.4864 325.419 55.3088 329.588 57.7399C332.659 59.5124 335.197 62.0778 336.937 65.1671C337.176 65.5456 337.332 65.9706 337.393 66.414C337.454 66.8574 337.42 67.3086 337.292 67.7375C337.054 68.6293 336.478 69.3934 335.687 69.8679L310.323 84.1756C311.533 85.4231 312.982 86.4131 314.584 87.0873C316.158 87.7477 317.847 88.0951 319.554 88.1095C321.076 88.1317 322.59 87.877 324.02 87.357C325.407 86.8626 326.703 86.1429 327.855 85.2267C329.008 84.2899 329.991 83.1607 330.759 81.8893C331.547 80.588 332.106 79.1613 332.413 77.6719C332.579 76.7757 333.089 75.9804 333.834 75.456C334.21 75.1825 334.641 74.9954 335.098 74.9067C335.554 74.8184 336.024 74.8317 336.475 74.945ZM313.22 63.6688C311.965 64.4063 310.834 65.3358 309.868 66.424C308.921 67.4717 308.158 68.672 307.61 69.9745C307.067 71.2713 306.736 72.6475 306.63 74.0504C306.517 75.4793 306.632 76.9177 306.971 78.3106L328.92 65.8774C327.708 64.6505 326.258 63.6838 324.659 63.0373C323.081 62.3947 321.394 62.0595 319.689 62.0501C318.567 62.0434 317.449 62.1744 316.359 62.4407C315.257 62.6921 314.2 63.1061 313.22 63.6688Z" fill="#D2D2AF"/>
<path d="M248.845 55.1975C249.292 55.202 249.733 55.2941 250.144 55.4689C250.555 55.6437 250.927 55.8979 251.24 56.2164C251.553 56.5355 251.8 56.9128 251.967 57.3268C252.134 57.7413 252.218 58.1842 252.214 58.6309C252.21 59.0776 252.118 59.5188 251.943 59.93C251.768 60.3412 251.514 60.7135 251.195 61.0265C250.876 61.3395 250.499 61.5864 250.085 61.7535C249.671 61.9205 249.227 62.0043 248.78 61.9999L242.589 61.9433C241.834 61.92 241.083 62.0492 240.379 62.3223C239.675 62.5959 239.033 63.0076 238.492 63.5337C237.945 64.052 237.512 64.6785 237.22 65.3727C236.928 66.0669 236.783 66.8139 236.795 67.5669L236.596 91.0631C236.592 91.5099 236.501 91.9516 236.326 92.3628C236.151 92.774 235.898 93.1469 235.579 93.4599C235.261 93.7734 234.884 94.0204 234.47 94.1879C234.055 94.3555 233.613 94.4399 233.166 94.436C232.719 94.4321 232.278 94.3406 231.866 94.1663C231.455 93.9921 231.082 93.7385 230.769 93.4199C230.456 93.1014 230.209 92.724 230.041 92.3101C229.874 91.8961 229.789 91.4533 229.793 91.0065L229.992 67.5031C229.996 65.8167 230.346 64.1491 231.022 62.6036C231.669 61.1286 232.589 59.789 233.734 58.6559C234.889 57.5277 236.258 56.6415 237.76 56.0499C239.313 55.4301 240.973 55.1215 242.646 55.1409L248.845 55.1975Z" fill="#D2D2AF"/>
<path d="M274.109 55.4316C276.707 55.3512 279.292 55.8356 281.685 56.8522C284.086 57.8661 286.268 59.3344 288.111 61.1762C289.945 62.9831 291.394 65.1429 292.372 67.5241C293.351 69.938 293.834 72.5245 293.792 75.1294L293.65 91.603C293.639 92.2744 293.431 92.9282 293.052 93.4825C292.673 94.0364 292.138 94.467 291.516 94.7195C290.894 94.9725 290.211 95.0369 289.552 94.9043C288.894 94.7716 288.289 94.4481 287.813 93.9742C287.494 93.6579 287.244 93.2789 287.079 92.861C286.914 92.4426 286.838 91.9953 286.854 91.5458L286.989 75.0722C287.012 73.3791 286.689 71.6988 286.039 70.1345C285.389 68.5707 284.428 67.1556 283.212 65.9764C282.026 64.7483 280.595 63.7838 279.012 63.1451C277.429 62.5064 275.729 62.2084 274.023 62.27L263.244 62.1635L262.996 91.482C262.947 92.3577 262.56 93.1801 261.916 93.7755C261.267 94.3826 260.407 94.7139 259.518 94.6989C258.63 94.6845 257.781 94.3255 257.152 93.6973C256.836 93.3793 256.587 92.9997 256.422 92.5819C256.257 92.1646 256.18 91.7178 256.193 91.2689L256.442 62.1063C256.435 61.2095 256.61 60.32 256.954 59.4915C257.298 58.663 257.805 57.9121 258.445 57.2829C259.084 56.6536 259.844 56.1597 260.678 55.8295C261.512 55.4993 262.404 55.3401 263.301 55.3606L274.109 55.4316Z" fill="#D2D2AF"/>
<path d="M349.441 42.1187C349.444 41.672 349.536 41.2303 349.711 40.8191C349.885 40.4079 350.139 40.035 350.457 39.722C350.776 39.4084 351.153 39.1609 351.567 38.9939C351.981 38.8263 352.424 38.742 352.87 38.7459C353.317 38.7492 353.759 38.8407 354.17 39.0156C354.581 39.1898 354.954 39.4434 355.267 39.7619C355.581 40.0805 355.828 40.4573 355.995 40.8712C356.163 41.2858 356.247 41.7286 356.243 42.1753L356.158 55.8582L364.473 55.9292C364.932 55.9126 365.39 55.9892 365.819 56.154C366.248 56.3188 366.639 56.5691 366.968 56.8898C367.298 57.21 367.559 57.5935 367.736 58.0174C367.913 58.4419 368.003 58.897 367.999 59.3565C367.995 59.8159 367.898 60.2699 367.714 60.6911C367.53 61.1123 367.262 61.4913 366.927 61.8065C366.593 62.1211 366.198 62.3647 365.766 62.5223C365.335 62.6805 364.875 62.7493 364.417 62.7249L356.101 62.6539L355.931 82.6846C355.909 83.442 356.042 84.1956 356.323 84.8993C356.604 85.6029 357.026 86.2411 357.564 86.7749C358.077 87.316 358.697 87.7461 359.383 88.038C360.07 88.3298 360.809 88.4775 361.555 88.4719H363.742C364.184 88.4719 364.622 88.5607 365.029 88.7327C365.436 88.9048 365.805 89.1567 366.114 89.473C366.433 89.7904 366.687 90.1683 366.859 90.5845C367.031 91.0013 367.117 91.448 367.114 91.898C367.111 92.3486 367.017 92.7942 366.84 93.2082C366.662 93.6222 366.403 93.9962 366.078 94.3086C365.764 94.62 365.39 94.8652 364.978 95.0301C364.568 95.1943 364.128 95.2753 363.685 95.267H361.491C359.83 95.2637 358.189 94.9152 356.669 94.2448C353.676 92.9407 351.31 90.5207 350.073 87.4991C349.432 85.9509 349.114 84.2889 349.136 82.6135L349.306 62.5895H344.996C344.549 62.5862 344.108 62.4946 343.696 62.3198C343.285 62.1455 342.912 61.8919 342.599 61.5734C342.286 61.2549 342.038 60.8781 341.871 60.4641C341.704 60.0496 341.619 59.6067 341.623 59.16C341.627 58.7133 341.718 58.2721 341.893 57.8609C342.067 57.4497 342.321 57.0768 342.639 56.7633C342.958 56.4503 343.335 56.2028 343.749 56.0352C344.163 55.8676 344.606 55.7838 345.053 55.7872H349.363L349.441 42.1187Z" fill="#D2D2AF"/>
<path d="M371.262 44.0426C371.255 43.3639 371.384 42.6908 371.643 42.0637C371.902 41.4361 372.285 40.8673 372.769 40.3917C373.253 39.9162 373.828 39.5438 374.46 39.2963C375.092 39.0488 375.768 38.9312 376.446 38.9517C377.109 38.9461 377.767 39.0771 378.377 39.3363C378.988 39.5949 379.539 39.9766 379.996 40.4567C380.471 40.94 380.841 41.5144 381.085 42.1459C381.33 42.7768 381.443 43.4516 381.416 44.1281C381.415 44.794 381.281 45.4527 381.022 46.0664C380.764 46.6807 380.387 47.2368 379.912 47.704C379.437 48.1707 378.874 48.5386 378.256 48.7867C377.638 49.0347 376.977 49.1574 376.311 49.148C375.632 49.1596 374.958 49.032 374.331 48.7734C373.702 48.5142 373.135 48.1297 372.661 47.6424C372.195 47.1696 371.83 46.6064 371.59 45.9871C371.349 45.3683 371.238 44.7063 371.262 44.0426ZM379.393 92.4058C379.389 92.8519 379.297 93.2936 379.122 93.7048C378.947 94.1155 378.693 94.4884 378.374 94.8014C378.055 95.1138 377.678 95.3613 377.264 95.5283C376.849 95.6954 376.406 95.7792 375.96 95.7747C375.513 95.7708 375.071 95.6787 374.66 95.5039C374.25 95.3291 373.877 95.075 373.564 94.7559C373.251 94.4373 373.004 94.06 372.837 93.6455C372.67 93.2315 372.586 92.7881 372.59 92.3414L372.874 59.4014C372.882 58.4996 373.247 57.6373 373.891 57.0046C374.534 56.372 375.402 56.0213 376.304 56.0285C377.206 56.0363 378.068 56.402 378.701 57.0451C379.333 57.6883 379.685 58.5562 379.677 59.4585L379.393 92.4058Z" fill="#D2D2AF"/>
<path d="M414.905 84.6941C415.229 84.3339 415.627 84.0481 416.072 83.8572C416.517 83.6658 416.998 83.5737 417.482 83.5864C418.292 83.5704 419.076 83.8739 419.662 84.4316C420.01 84.7074 420.295 85.0526 420.5 85.4449C420.705 85.8378 420.826 86.269 420.855 86.7107C420.908 87.1624 420.859 87.6202 420.711 88.0503C420.563 88.4804 420.321 88.8716 420.003 89.1962C418.136 91.396 415.796 93.1462 413.158 94.316C410.536 95.4758 407.695 96.0568 404.829 96.0202C402.182 96.013 399.565 95.4641 397.139 94.4081C392.366 92.3482 388.588 88.5059 386.608 83.7002C385.092 80.0421 384.707 76.0139 385.501 72.1349C386.296 68.256 388.235 64.7039 391.067 61.9365C392.914 60.1501 395.082 58.7312 397.458 57.7545C399.897 56.7434 402.515 56.2384 405.155 56.2701C408.021 56.2368 410.858 56.8561 413.449 58.0808C416.053 59.3028 418.359 61.0763 420.209 63.2788C420.522 63.6085 420.756 64.0047 420.896 64.437C421.037 64.8693 421.078 65.3276 421.018 65.7782C420.914 66.6328 420.506 67.4214 419.868 68.0007C419.569 68.2982 419.213 68.5334 418.821 68.6916C418.43 68.8503 418.011 68.9291 417.589 68.9236C417.098 68.923 416.613 68.8126 416.171 68.6C415.729 68.3875 415.34 68.0784 415.032 67.6955C413.819 66.2449 412.298 65.0835 410.58 64.2938C408.866 63.5008 407.002 63.0846 405.113 63.0729C403.36 63.0469 401.62 63.3804 400 64.0524C396.855 65.3459 394.339 67.8176 392.992 70.9402C392.303 72.5511 391.941 74.282 391.927 76.0339C391.912 77.7852 392.245 79.5221 392.906 81.1442C394.194 84.2929 396.668 86.81 399.794 88.1524C401.468 88.8716 403.273 89.234 405.095 89.2168C406.917 89.2001 408.715 88.8033 410.374 88.0531C412.109 87.2734 413.655 86.1275 414.905 84.6941Z" fill="#D2D2AF"/>
<path d="M452.319 56.9732C452.765 56.9755 453.205 57.0692 453.613 57.249C454.021 57.4283 454.388 57.6896 454.691 58.0171C455.017 58.3372 455.275 58.7213 455.447 59.1452C455.619 59.5692 455.703 60.0237 455.692 60.4809C455.696 60.931 455.605 61.3766 455.425 61.7889C455.245 62.2012 454.981 62.5708 454.648 62.8738C454.335 63.1862 453.963 63.4326 453.553 63.5985C453.143 63.7639 452.704 63.846 452.262 63.8399L435.483 63.6979C434.909 63.6812 434.338 63.7805 433.803 63.9909C433.268 64.2006 432.782 64.5164 432.373 64.9187C431.955 65.3077 431.623 65.7794 431.398 66.3038C431.173 66.8288 431.06 67.3942 431.066 67.9653C431.041 68.9863 431.409 69.978 432.096 70.7344C432.741 71.5057 433.66 71.9968 434.659 72.105L448.47 73.9441C449.803 74.1511 451.09 74.5856 452.276 75.2293C453.433 75.8469 454.463 76.6754 455.316 77.6721C456.165 78.6593 456.833 79.7891 457.29 81.0094C457.765 82.2536 458.005 83.5754 458 84.9072C457.997 86.3795 457.702 87.8362 457.131 89.193C456.561 90.5503 455.727 91.7806 454.677 92.8122C453.628 93.8444 452.383 94.6573 451.017 95.2045C449.65 95.7511 448.188 96.0213 446.717 95.9986L428.737 95.8427C428.278 95.8593 427.82 95.7827 427.391 95.6179C426.962 95.4526 426.571 95.2028 426.242 94.8821C425.912 94.5619 425.651 94.1784 425.474 93.7539C425.297 93.3299 425.208 92.8744 425.211 92.4149C425.215 91.9554 425.312 91.5015 425.497 91.0808C425.68 90.6596 425.948 90.2801 426.283 89.9654C426.618 89.6508 427.013 89.4072 427.444 89.249C427.876 89.0914 428.335 89.0226 428.794 89.047L446.773 89.1963C447.351 89.2135 447.927 89.1108 448.463 88.895C449 88.6785 449.486 88.3533 449.891 87.9394C450.307 87.5404 450.639 87.0609 450.864 86.5298C451.09 85.9988 451.206 85.4278 451.204 84.8506C451.211 83.844 450.841 82.8718 450.168 82.1237C449.856 81.7308 449.47 81.4029 449.031 81.1592C448.592 80.9156 448.109 80.7608 447.611 80.7037L433.8 78.8507C432.46 78.6965 431.166 78.2742 429.994 77.6077C428.85 76.9718 427.822 76.1455 426.955 75.1655C426.093 74.1844 425.423 73.0495 424.981 71.8209C423.991 69.1495 424.069 66.1989 425.201 63.5841C426.341 60.9132 428.49 58.8001 431.18 57.7046C432.57 57.1314 434.064 56.8484 435.568 56.8739L452.347 57.016L452.319 56.9732Z" fill="#D2D2AF"/>
<path fill-rule="evenodd" clip-rule="evenodd" d="M80.8163 25.8478L80.8164 39.6992L72.5254 41.8292L72.5253 18.6997C72.5253 15.2176 76.3806 13.1173 79.3062 15.0055L111.708 35.9173C114.876 37.9618 114.17 42.7837 110.549 43.8341L17.9677 70.6928L39.8642 85.8309L39.8642 68.3429L48.1552 65.8727L48.1551 93.2575C48.1552 96.8028 44.1744 98.8902 41.2581 96.874L6.51223 72.8525C3.46504 70.7459 4.22933 66.0456 7.78752 65.0133L100.035 38.2515L80.8163 25.8478Z" fill="#D2D2AF"/>
<path fill-rule="evenodd" clip-rule="evenodd" d="M39.1943 51.71L39.1943 23.8478L48.0871 20.0911L48.0871 49.2055L39.1943 51.71Z" fill="#D2D2AF"/>
<path fill-rule="evenodd" clip-rule="evenodd" d="M82.0115 55.6622L82.0115 83.5244L73.1187 87.2811L73.1187 58.1667L82.0115 55.6622Z" fill="#D2D2AF"/>
</svg>
