<svg width="660" height="211" viewBox="0 0 660 211" fill="none" xmlns="http://www.w3.org/2000/svg">
<path d="M105.763 198.062H103.232V172.743H105.763V198.062ZM127.031 198.062H124.636V187.764C124.636 185.46 124.043 183.749 122.857 182.632C121.716 181.559 120.359 181.023 118.785 181.023C117.211 181.023 115.854 181.559 114.714 182.632C113.55 183.726 112.969 185.38 112.969 187.593V198.062H110.574V179.347H112.969V181.742H113.037C113.63 180.807 114.44 180.1 115.466 179.621C116.516 179.119 117.622 178.868 118.785 178.868C121.408 178.868 123.438 179.689 124.875 181.331C126.312 182.951 127.031 185.095 127.031 187.764V198.062ZM147.914 198.062H145.519V187.764C145.519 185.46 144.926 183.749 143.74 182.632C142.599 181.559 141.242 181.023 139.668 181.023C138.094 181.023 136.737 181.559 135.597 182.632C134.433 183.726 133.852 185.38 133.852 187.593V198.062H131.457V179.347H133.852V181.742H133.92C134.513 180.807 135.323 180.1 136.349 179.621C137.399 179.119 138.505 178.868 139.668 178.868C142.291 178.868 144.322 179.689 145.759 181.331C147.196 182.951 147.914 185.095 147.914 187.764V198.062ZM171.124 188.688C171.124 191.379 170.154 193.694 168.216 195.633C166.3 197.549 163.996 198.507 161.304 198.507C158.658 198.507 156.366 197.549 154.427 195.633C152.511 193.717 151.553 191.448 151.553 188.824C151.553 186.11 152.5 183.772 154.393 181.81C156.286 179.849 158.59 178.868 161.304 178.868C163.973 178.868 166.277 179.837 168.216 181.776C170.154 183.715 171.124 186.019 171.124 188.688ZM168.729 188.585C168.729 186.532 167.999 184.764 166.539 183.282C165.102 181.776 163.368 181.023 161.338 181.023C159.263 181.023 157.506 181.799 156.069 183.35C154.655 184.878 153.948 186.692 153.948 188.79C153.948 190.843 154.666 192.622 156.104 194.128C157.541 195.61 159.286 196.352 161.338 196.352C163.46 196.352 165.216 195.599 166.608 194.094C168.022 192.565 168.729 190.729 168.729 188.585ZM191.217 179.347L183.314 198.062H180.679L172.776 179.347H175.342L181.945 195.086L188.651 179.347H191.217ZM212.729 198.062H210.334V194.778H210.265C209.467 195.987 208.418 196.911 207.118 197.549C205.84 198.188 204.46 198.507 202.977 198.507C200.149 198.507 197.765 197.572 195.827 195.702C193.888 193.808 192.918 191.459 192.918 188.653C192.918 185.871 193.899 183.544 195.861 181.674C197.822 179.803 200.195 178.868 202.977 178.868C204.483 178.868 205.874 179.187 207.152 179.826C208.452 180.465 209.49 181.4 210.265 182.632H210.334V179.347H212.729V198.062ZM208.281 194.128C209.741 192.622 210.471 190.82 210.471 188.722C210.471 186.623 209.741 184.821 208.281 183.316C206.844 181.788 205.076 181.023 202.977 181.023C200.765 181.023 198.929 181.765 197.469 183.247C196.032 184.707 195.313 186.543 195.313 188.756C195.313 190.946 196.043 192.759 197.503 194.196C198.963 195.633 200.788 196.352 202.977 196.352C205.076 196.352 206.844 195.61 208.281 194.128ZM226.128 181.502H221.646V198.062H219.251V181.502H215.316V179.347H219.251V172.743H221.646V179.347H226.128V181.502ZM247.268 188.893C247.268 188.984 247.257 189.098 247.234 189.235C247.234 189.372 247.234 189.486 247.234 189.577H230.195C230.286 191.402 231.05 192.987 232.487 194.333C233.947 195.679 235.601 196.352 237.449 196.352C238.931 196.352 240.288 195.953 241.52 195.154C242.775 194.356 243.653 193.284 244.155 191.938H246.687C246.002 193.9 244.816 195.485 243.128 196.694C241.44 197.903 239.558 198.507 237.483 198.507C234.791 198.507 232.487 197.549 230.571 195.633C228.678 193.717 227.731 191.413 227.731 188.722C227.731 186.03 228.678 183.715 230.571 181.776C232.487 179.837 234.78 178.868 237.449 178.868C240.163 178.868 242.478 179.86 244.394 181.845C246.31 183.829 247.268 186.179 247.268 188.893ZM244.805 187.422C244.485 185.574 243.653 184.046 242.307 182.837C240.961 181.628 239.353 181.023 237.483 181.023C235.635 181.023 234.027 181.628 232.658 182.837C231.313 184.046 230.491 185.574 230.195 187.422H244.805ZM263.306 198.062H260.774V172.743H263.306V198.062ZM284.574 198.062H282.178V187.764C282.178 185.46 281.585 183.749 280.399 182.632C279.259 181.559 277.902 181.023 276.328 181.023C274.754 181.023 273.397 181.559 272.256 182.632C271.093 183.726 270.511 185.38 270.511 187.593V198.062H268.116V179.347H270.511V181.742H270.58C271.173 180.807 271.982 180.1 273.009 179.621C274.058 179.119 275.164 178.868 276.328 178.868C278.951 178.868 280.981 179.689 282.418 181.331C283.855 182.951 284.574 185.095 284.574 187.764V198.062ZM298.066 181.502H293.584V198.062H291.189V181.502H287.254V179.347H291.189V172.743H293.584V179.347H298.066V181.502ZM319.207 188.893C319.207 188.984 319.195 189.098 319.172 189.235C319.172 189.372 319.172 189.486 319.172 189.577H302.133C302.224 191.402 302.989 192.987 304.426 194.333C305.885 195.679 307.539 196.352 309.387 196.352C310.869 196.352 312.227 195.953 313.458 195.154C314.713 194.356 315.591 193.284 316.093 191.938H318.625C317.941 193.9 316.754 195.485 315.067 196.694C313.379 197.903 311.497 198.507 309.421 198.507C306.729 198.507 304.426 197.549 302.51 195.633C300.616 193.717 299.67 191.413 299.67 188.722C299.67 186.03 300.616 183.715 302.51 181.776C304.426 179.837 306.718 178.868 309.387 178.868C312.101 178.868 314.416 179.86 316.332 181.845C318.248 183.829 319.207 186.179 319.207 188.893ZM316.743 187.422C316.424 185.574 315.591 184.046 314.245 182.837C312.9 181.628 311.291 181.023 309.421 181.023C307.573 181.023 305.965 181.628 304.597 182.837C303.251 184.046 302.43 185.574 302.133 187.422H316.743ZM341.357 195.12C341.357 196.603 341.243 197.88 341.015 198.952C340.81 200.024 340.353 201.028 339.646 201.963C338.802 203.058 337.707 203.902 336.362 204.495C335.039 205.111 333.659 205.419 332.222 205.419C329.918 205.419 327.899 204.814 326.166 203.605C324.455 202.419 323.28 200.731 322.641 198.542H325.173C325.766 200.047 326.679 201.21 327.91 202.031C329.142 202.853 330.568 203.263 332.187 203.263C334.263 203.263 335.905 202.624 337.114 201.347C338.346 200.07 338.962 198.382 338.962 196.283V194.641H338.894C338.232 195.896 337.24 196.854 335.917 197.515C334.594 198.177 333.18 198.507 331.674 198.507C328.96 198.507 326.645 197.572 324.729 195.702C322.835 193.808 321.889 191.505 321.889 188.79C321.889 186.053 322.835 183.715 324.729 181.776C326.645 179.837 328.96 178.868 331.674 178.868C333.157 178.868 334.525 179.199 335.78 179.86C337.057 180.522 338.095 181.468 338.894 182.7H338.962V179.347H341.357V195.12ZM336.909 194.094C338.369 192.588 339.099 190.798 339.099 188.722C339.099 186.646 338.38 184.844 336.943 183.316C335.506 181.788 333.75 181.023 331.674 181.023C329.598 181.023 327.842 181.788 326.405 183.316C324.991 184.821 324.284 186.623 324.284 188.722C324.284 190.798 324.991 192.588 326.405 194.094C327.842 195.599 329.598 196.352 331.674 196.352C333.727 196.352 335.472 195.599 336.909 194.094ZM353.601 181.4C351.936 181.537 350.624 182.107 349.666 183.111C348.731 184.114 348.263 185.449 348.263 187.114V198.062H345.868V179.347H348.263V182.05H348.332C348.811 180.932 349.472 180.145 350.316 179.689C351.16 179.233 352.255 178.959 353.601 178.868V181.4ZM374.949 198.062H372.554V194.778H372.486C371.687 195.987 370.638 196.911 369.338 197.549C368.06 198.188 366.68 198.507 365.198 198.507C362.369 198.507 359.986 197.572 358.047 195.702C356.108 193.808 355.139 191.459 355.139 188.653C355.139 185.871 356.119 183.544 358.081 181.674C360.043 179.803 362.415 178.868 365.198 178.868C366.703 178.868 368.095 179.187 369.372 179.826C370.672 180.465 371.71 181.4 372.486 182.632H372.554V179.347H374.949V198.062ZM370.501 194.128C371.961 192.622 372.691 190.82 372.691 188.722C372.691 186.623 371.961 184.821 370.501 183.316C369.064 181.788 367.296 181.023 365.198 181.023C362.985 181.023 361.149 181.765 359.689 183.247C358.252 184.707 357.534 186.543 357.534 188.756C357.534 190.946 358.264 192.759 359.723 194.196C361.183 195.633 363.008 196.352 365.198 196.352C367.296 196.352 369.064 195.61 370.501 194.128ZM388.348 181.502H383.866V198.062H381.471V181.502H377.536V179.347H381.471V172.743H383.866V179.347H388.348V181.502ZM409.489 188.893C409.489 188.984 409.477 189.098 409.454 189.235C409.454 189.372 409.454 189.486 409.454 189.577H392.415C392.507 191.402 393.271 192.987 394.708 194.333C396.168 195.679 397.821 196.352 399.669 196.352C401.152 196.352 402.509 195.953 403.74 195.154C404.995 194.356 405.873 193.284 406.375 191.938H408.907C408.223 193.9 407.037 195.485 405.349 196.694C403.661 197.903 401.779 198.507 399.703 198.507C397.012 198.507 394.708 197.549 392.792 195.633C390.898 193.717 389.952 191.413 389.952 188.722C389.952 186.03 390.898 183.715 392.792 181.776C394.708 179.837 397 178.868 399.669 178.868C402.383 178.868 404.698 179.86 406.615 181.845C408.531 183.829 409.489 186.179 409.489 188.893ZM407.025 187.422C406.706 185.574 405.873 184.046 404.527 182.837C403.182 181.628 401.574 181.023 399.703 181.023C397.855 181.023 396.247 181.628 394.879 182.837C393.533 184.046 392.712 185.574 392.415 187.422H407.025ZM445.337 198.062H442.565L438.904 189.543H427.134L423.439 198.062H420.805L431.617 172.743H434.456L445.337 198.062ZM437.912 187.251L433.054 175.617L428.092 187.251H437.912ZM466.49 192.554C464.46 196.523 461.357 198.507 457.183 198.507C454.4 198.507 452.028 197.572 450.066 195.702C448.105 193.808 447.124 191.482 447.124 188.722C447.124 185.985 448.105 183.658 450.066 181.742C452.051 179.826 454.423 178.868 457.183 178.868C459.236 178.868 461.107 179.415 462.794 180.51C464.505 181.605 465.737 183.099 466.49 184.992H463.855C463.194 183.761 462.27 182.791 461.084 182.084C459.92 181.377 458.643 181.023 457.252 181.023C455.107 181.023 453.283 181.765 451.777 183.247C450.272 184.707 449.519 186.509 449.519 188.653C449.519 190.82 450.26 192.645 451.743 194.128C453.248 195.61 455.085 196.352 457.252 196.352C458.666 196.352 459.955 196.032 461.118 195.394C462.304 194.732 463.216 193.786 463.855 192.554H466.49ZM488.643 192.554C486.612 196.523 483.51 198.507 479.336 198.507C476.553 198.507 474.181 197.572 472.219 195.702C470.258 193.808 469.277 191.482 469.277 188.722C469.277 185.985 470.258 183.658 472.219 181.742C474.204 179.826 476.576 178.868 479.336 178.868C481.389 178.868 483.259 179.415 484.947 180.51C486.658 181.605 487.89 183.099 488.643 184.992H486.008C485.346 183.761 484.423 182.791 483.237 182.084C482.073 181.377 480.796 181.023 479.404 181.023C477.26 181.023 475.436 181.765 473.93 183.247C472.425 184.707 471.672 186.509 471.672 188.653C471.672 190.82 472.413 192.645 473.896 194.128C475.401 195.61 477.238 196.352 479.404 196.352C480.819 196.352 482.107 196.032 483.271 195.394C484.457 194.732 485.369 193.786 486.008 192.554H488.643ZM510.864 188.893C510.864 188.984 510.852 189.098 510.83 189.235C510.83 189.372 510.83 189.486 510.83 189.577H493.791C493.882 191.402 494.646 192.987 496.083 194.333C497.543 195.679 499.196 196.352 501.044 196.352C502.527 196.352 503.884 195.953 505.116 195.154C506.37 194.356 507.248 193.284 507.75 191.938H510.282C509.598 193.9 508.412 195.485 506.724 196.694C505.036 197.903 503.154 198.507 501.078 198.507C498.387 198.507 496.083 197.549 494.167 195.633C492.274 193.717 491.327 191.413 491.327 188.722C491.327 186.03 492.274 183.715 494.167 181.776C496.083 179.837 498.375 178.868 501.044 178.868C503.758 178.868 506.074 179.86 507.99 181.845C509.906 183.829 510.864 186.179 510.864 188.893ZM508.4 187.422C508.081 185.574 507.248 184.046 505.903 182.837C504.557 181.628 502.949 181.023 501.078 181.023C499.231 181.023 497.623 181.628 496.254 182.837C494.908 184.046 494.087 185.574 493.791 187.422H508.4ZM516.899 198.062H514.504V172.743H516.899V198.062ZM539.967 188.893C539.967 188.984 539.955 189.098 539.932 189.235C539.932 189.372 539.932 189.486 539.932 189.577H522.893C522.985 191.402 523.749 192.987 525.186 194.333C526.646 195.679 528.299 196.352 530.147 196.352C531.63 196.352 532.987 195.953 534.218 195.154C535.473 194.356 536.351 193.284 536.853 191.938H539.385C538.701 193.9 537.515 195.485 535.827 196.694C534.139 197.903 532.257 198.507 530.181 198.507C527.49 198.507 525.186 197.549 523.27 195.633C521.376 193.717 520.43 191.413 520.43 188.722C520.43 186.03 521.376 183.715 523.27 181.776C525.186 179.837 527.478 178.868 530.147 178.868C532.861 178.868 535.176 179.86 537.093 181.845C539.009 183.829 539.967 186.179 539.967 188.893ZM537.503 187.422C537.184 185.574 536.351 184.046 535.005 182.837C533.66 181.628 532.052 181.023 530.181 181.023C528.333 181.023 526.725 181.628 525.357 182.837C524.011 184.046 523.19 185.574 522.893 187.422H537.503ZM551.339 181.4C549.674 181.537 548.363 182.107 547.405 183.111C546.469 184.114 546.002 185.449 546.002 187.114V198.062H543.607V179.347H546.002V182.05H546.07C546.549 180.932 547.211 180.145 548.055 179.689C548.899 179.233 549.993 178.959 551.339 178.868V181.4ZM572.688 198.062H570.293V194.778H570.224C569.426 195.987 568.377 196.911 567.076 197.549C565.799 198.188 564.419 198.507 562.936 198.507C560.108 198.507 557.724 197.572 555.785 195.702C553.847 193.808 552.877 191.459 552.877 188.653C552.877 185.871 553.858 183.544 555.82 181.674C557.781 179.803 560.154 178.868 562.936 178.868C564.442 178.868 565.833 179.187 567.111 179.826C568.411 180.465 569.449 181.4 570.224 182.632H570.293V179.347H572.688V198.062ZM568.24 194.128C569.699 192.622 570.429 190.82 570.429 188.722C570.429 186.623 569.699 184.821 568.24 183.316C566.803 181.788 565.035 181.023 562.936 181.023C560.724 181.023 558.888 181.765 557.428 183.247C555.991 184.707 555.272 186.543 555.272 188.756C555.272 190.946 556.002 192.759 557.462 194.196C558.922 195.633 560.747 196.352 562.936 196.352C565.035 196.352 566.803 195.61 568.24 194.128ZM586.087 181.502H581.605V198.062H579.21V181.502H575.275V179.347H579.21V172.743H581.605V179.347H586.087V181.502ZM607.227 188.893C607.227 188.984 607.216 189.098 607.193 189.235C607.193 189.372 607.193 189.486 607.193 189.577H590.154C590.245 191.402 591.009 192.987 592.446 194.333C593.906 195.679 595.56 196.352 597.407 196.352C598.89 196.352 600.247 195.953 601.479 195.154C602.733 194.356 603.612 193.284 604.113 191.938H606.645C605.961 193.9 604.775 195.485 603.087 196.694C601.399 197.903 599.517 198.507 597.442 198.507C594.75 198.507 592.446 197.549 590.53 195.633C588.637 193.717 587.69 191.413 587.69 188.722C587.69 186.03 588.637 183.715 590.53 181.776C592.446 179.837 594.739 178.868 597.407 178.868C600.122 178.868 602.437 179.86 604.353 181.845C606.269 183.829 607.227 186.179 607.227 188.893ZM604.764 187.422C604.444 185.574 603.612 184.046 602.266 182.837C600.92 181.628 599.312 181.023 597.442 181.023C595.594 181.023 593.986 181.628 592.617 182.837C591.271 184.046 590.45 185.574 590.154 187.422H604.764Z" fill="#D2D2AF"/>
<path d="M187.517 127.812C184.99 129.108 182.182 129.758 179.343 129.702L158.14 129.519C155.731 129.509 153.349 129.008 151.141 128.047C146.805 126.194 143.376 122.706 141.596 118.34C140.676 116.116 140.217 113.727 140.248 111.321L140.493 81.954C140.487 81.3016 140.612 80.6548 140.859 80.0511C141.107 79.4474 141.472 78.8996 141.933 78.4388C142.388 77.9748 142.93 77.6059 143.528 77.3544C144.126 77.1028 144.769 76.9727 145.418 76.9727C146.068 76.9727 146.71 77.1028 147.308 77.3544C147.907 77.6059 148.449 77.9748 148.902 78.4388C149.356 78.9107 149.711 79.4681 149.948 80.079C150.185 80.6891 150.298 81.3399 150.282 81.9947L150.037 111.351C150.016 112.437 150.213 113.517 150.614 114.526C151.016 115.535 151.615 116.455 152.376 117.231C153.137 118.006 154.046 118.622 155.047 119.042C156.049 119.463 157.125 119.679 158.211 119.678L179.424 119.863C180.506 119.899 181.584 119.71 182.588 119.308C183.593 118.904 184.502 118.297 185.259 117.523C186.03 116.757 186.639 115.844 187.05 114.838C187.461 113.832 187.665 112.754 187.65 111.668L187.895 82.3118C187.888 81.6577 188.012 81.0085 188.26 80.4032C188.507 79.7979 188.873 79.2477 189.336 78.7862C189.785 78.315 190.329 77.9429 190.93 77.6945C191.532 77.4462 192.18 77.3272 192.83 77.3456C193.492 77.3512 194.146 77.4869 194.756 77.7472C195.364 78.0068 195.915 78.3845 196.378 78.8588C196.839 79.3332 197.202 79.8937 197.446 80.5094C197.69 81.1251 197.809 81.7823 197.797 82.4443L197.317 139.093C197.321 141.955 196.723 144.785 195.559 147.4C193.341 152.471 189.259 156.496 184.155 158.639C181.52 159.745 178.685 160.295 175.828 160.254L148.095 159.958C147.446 159.966 146.801 159.837 146.205 159.58C145.608 159.323 145.073 158.944 144.632 158.466C144.183 158.015 143.829 157.479 143.59 156.89C143.352 156.3 143.233 155.669 143.241 155.033C143.237 154.378 143.362 153.729 143.611 153.124C143.86 152.519 144.228 151.969 144.692 151.508C145.14 151.037 145.682 150.665 146.282 150.418C146.882 150.169 147.528 150.049 148.177 150.067L175.909 150.302C177.42 150.338 178.923 150.069 180.328 149.51C181.732 148.951 183.01 148.116 184.084 147.053C185.139 146.011 185.995 144.785 186.607 143.435C187.261 142.04 187.609 140.521 187.629 138.98L187.721 127.74L187.517 127.812Z" fill="#A7CF9E"/>
<path d="M205.971 106.19C205.975 102.422 206.734 98.6928 208.201 95.2223C209.668 91.751 211.814 88.6087 214.513 85.9791C217.181 83.4117 220.298 81.3571 223.709 79.9197C227.219 78.4232 231.002 77.675 234.817 77.7229C238.671 77.7317 242.482 78.5422 246.006 80.1041C249.373 81.595 252.431 83.7064 255.018 86.3264C257.593 88.9561 259.637 92.0576 261.037 95.4618C262.473 99.0058 263.196 102.799 263.162 106.624C263.13 110.448 262.341 114.228 260.843 117.747C259.39 121.134 257.31 124.217 254.711 126.83C252.034 129.48 248.854 131.567 245.359 132.971C241.864 134.375 238.123 135.067 234.357 135.005C230.924 134.98 227.523 134.343 224.312 133.125C221.099 131.905 218.145 130.088 215.607 127.771L215.361 156.156C215.365 156.802 215.238 157.44 214.99 158.036C214.742 158.632 214.378 159.172 213.918 159.624C213.458 160.076 212.912 160.432 212.312 160.67C211.712 160.908 211.071 161.023 210.426 161.01C209.782 161.01 209.144 160.882 208.55 160.633C207.956 160.384 207.417 160.019 206.965 159.56C206.513 159.101 206.157 158.555 205.919 157.957C205.679 157.359 205.562 156.718 205.573 156.075L205.971 106.19ZM234.377 125.217C236.901 125.252 239.404 124.773 241.735 123.806C243.973 122.881 246.012 121.535 247.743 119.842C249.47 118.137 250.857 116.118 251.83 113.895C252.816 111.581 253.336 109.095 253.356 106.581C253.377 104.066 252.9 101.572 251.952 99.2422C251.025 96.9998 249.676 94.9571 247.978 93.2235C246.28 91.4883 244.26 90.1004 242.031 89.1365C239.72 88.1264 237.226 87.6049 234.705 87.6041C232.186 87.5682 229.687 88.0441 227.358 89.004C222.805 90.8622 219.162 94.4317 217.211 98.9459C216.211 101.259 215.693 103.752 215.689 106.272C215.642 108.795 216.118 111.299 217.089 113.629C218.017 115.867 219.366 117.907 221.063 119.637C222.762 121.372 224.782 122.76 227.011 123.725C229.337 124.724 231.845 125.232 234.377 125.217Z" fill="#A7CF9E"/>
<path d="M320.701 106.824C321.336 106.932 321.941 107.17 322.481 107.521C323.021 107.872 323.482 108.331 323.838 108.868C324.519 109.976 324.777 111.293 324.564 112.576C323.901 115.859 322.658 118.998 320.895 121.844C319.199 124.615 317.046 127.077 314.529 129.13C312.004 131.157 309.158 132.749 306.109 133.84C302.969 134.977 299.65 135.537 296.31 135.496C291.339 135.46 286.462 134.144 282.148 131.675C278.276 129.436 274.983 126.323 272.532 122.582C270.081 118.841 268.542 114.578 268.036 110.135C267.171 102.738 269.244 95.2967 273.81 89.413C278.016 83.887 284.097 80.0899 290.908 78.7372C297.72 77.3836 304.79 78.5679 310.789 82.0655C315.209 84.6169 318.861 88.3078 321.365 92.7541C321.71 93.2979 321.933 93.9096 322.022 94.5476C322.11 95.1857 322.06 95.8357 321.876 96.453C321.534 97.7363 320.706 98.8351 319.566 99.5178L283.067 120.108C284.809 121.902 286.894 123.327 289.198 124.297C291.464 125.248 293.894 125.747 296.351 125.769C298.541 125.8 300.719 125.433 302.778 124.685C304.773 123.973 306.638 122.938 308.296 121.62C309.955 120.271 311.369 118.647 312.475 116.818C313.608 114.944 314.413 112.892 314.856 110.748C315.094 109.458 315.828 108.314 316.9 107.56C317.441 107.166 318.062 106.896 318.718 106.769C319.375 106.642 320.052 106.661 320.701 106.824ZM287.236 90.598C285.431 91.6585 283.803 92.9969 282.413 94.5628C281.05 96.0705 279.952 97.7977 279.164 99.6711C278.382 101.538 277.905 103.519 277.754 105.536C277.591 107.594 277.756 109.663 278.245 111.668L309.829 93.7754C308.085 92.0099 305.998 90.6188 303.698 89.6885C301.426 88.7646 298.998 88.2822 296.545 88.2679C294.93 88.2583 293.321 88.4467 291.753 88.83C290.168 89.1926 288.646 89.7883 287.236 90.598Z" fill="#A7CF9E"/>
<path d="M484.192 107.847C484.827 107.954 485.432 108.192 485.972 108.544C486.512 108.895 486.973 109.354 487.329 109.89C488.01 110.999 488.268 112.316 488.054 113.599C487.392 116.882 486.149 120.021 484.386 122.867C482.689 125.637 480.537 128.1 478.02 130.153C475.495 132.18 472.649 133.772 469.6 134.863C466.459 135.999 463.14 136.56 459.801 136.519C454.83 136.483 449.953 135.167 445.638 132.697C441.767 130.459 438.474 127.345 436.023 123.604C433.572 119.864 432.032 115.601 431.527 111.157C430.661 103.76 432.735 96.3188 437.3 90.4351C441.506 84.9099 447.588 81.1128 454.399 79.7593C461.211 78.4065 468.281 79.59 474.28 83.0884C478.7 85.639 482.352 89.3307 484.856 93.7762C485.201 94.3208 485.424 94.9325 485.513 95.5705C485.601 96.2086 485.551 96.8578 485.367 97.4751C485.025 98.7584 484.196 99.858 483.057 100.541L446.558 121.13C448.299 122.925 450.385 124.349 452.689 125.32C454.955 126.27 457.385 126.77 459.842 126.791C462.032 126.823 464.21 126.456 466.269 125.708C468.264 124.996 470.129 123.961 471.786 122.642C473.446 121.294 474.86 119.669 475.966 117.84C477.099 115.967 477.904 113.914 478.347 111.771C478.585 110.481 479.318 109.337 480.391 108.582C480.931 108.188 481.553 107.919 482.209 107.792C482.866 107.665 483.543 107.684 484.192 107.847ZM450.727 91.6201C448.922 92.6814 447.294 94.019 445.904 95.5849C444.541 97.0926 443.442 98.8198 442.655 100.694C441.872 102.56 441.396 104.541 441.245 106.559C441.082 108.616 441.247 110.685 441.735 112.69L473.32 94.7983C471.576 93.0328 469.489 91.6417 467.188 90.7114C464.917 89.7867 462.489 89.3043 460.036 89.2908C458.421 89.2812 456.812 89.4696 455.244 89.8529C453.659 90.2147 452.137 90.8104 450.727 91.6201Z" fill="#A7CF9E"/>
<path d="M358.092 79.4294C358.735 79.4358 359.369 79.5683 359.961 79.8199C360.553 80.0714 361.089 80.4371 361.539 80.8955C361.989 81.3547 362.345 81.8977 362.585 82.4934C362.825 83.0899 362.946 83.7272 362.94 84.37C362.934 85.0128 362.801 85.6477 362.55 86.2394C362.298 86.8311 361.933 87.367 361.474 87.8173C361.015 88.2677 360.472 88.6231 359.876 88.8634C359.28 89.1038 358.642 89.2244 357.999 89.218L349.089 89.1365C348.003 89.103 346.922 89.2891 345.909 89.6819C344.896 90.0756 343.973 90.6682 343.193 91.4252C342.407 92.171 341.784 93.0726 341.364 94.0716C340.944 95.0706 340.734 96.1454 340.751 97.229L340.465 131.04C340.46 131.683 340.328 132.319 340.076 132.911C339.826 133.502 339.461 134.039 339.002 134.489C338.544 134.941 338.002 135.296 337.406 135.537C336.81 135.778 336.172 135.9 335.53 135.894C334.887 135.888 334.252 135.757 333.659 135.506C333.068 135.255 332.531 134.89 332.081 134.432C331.63 133.973 331.274 133.43 331.033 132.835C330.792 132.239 330.67 131.602 330.676 130.959L330.962 97.1372C330.968 94.7104 331.472 92.3108 332.444 90.0868C333.375 87.9643 334.7 86.0366 336.347 84.4059C338.009 82.7825 339.979 81.5072 342.141 80.6559C344.376 79.764 346.764 79.32 349.171 79.3479L358.092 79.4294Z" fill="#A7CF9E"/>
<path d="M394.447 79.7669C398.186 79.6511 401.906 80.3482 405.35 81.8111C408.804 83.2701 411.944 85.3831 414.597 88.0334C417.236 90.6335 419.321 93.7415 420.728 97.168C422.138 100.642 422.832 104.364 422.772 108.112L422.567 131.818C422.552 132.784 422.253 133.725 421.707 134.523C421.161 135.32 420.392 135.939 419.497 136.303C418.602 136.667 417.619 136.759 416.671 136.568C415.724 136.378 414.853 135.912 414.168 135.23C413.709 134.775 413.349 134.229 413.112 133.628C412.874 133.026 412.764 132.382 412.788 131.736L412.982 108.03C413.015 105.594 412.55 103.176 411.615 100.924C410.68 98.6741 409.296 96.6378 407.546 94.9409C405.84 93.1737 403.781 91.7858 401.503 90.8667C399.225 89.9476 396.779 89.5187 394.324 89.6074L378.813 89.4541L378.455 131.644C378.385 132.904 377.829 134.087 376.902 134.944C375.968 135.818 374.73 136.295 373.451 136.273C372.172 136.252 370.951 135.736 370.046 134.832C369.591 134.374 369.233 133.828 368.996 133.227C368.759 132.626 368.647 131.983 368.666 131.337L369.024 89.3718C369.015 88.0813 369.266 86.8013 369.761 85.609C370.256 84.4168 370.986 83.3364 371.907 82.4308C372.826 81.5253 373.92 80.8146 375.12 80.3394C376.32 79.8643 377.604 79.6351 378.895 79.6646L394.447 79.7669Z" fill="#A7CF9E"/>
<path d="M502.851 60.6086C502.856 59.9658 502.988 59.3302 503.239 58.7384C503.49 58.1467 503.855 57.6101 504.313 57.1597C504.771 56.7085 505.314 56.3524 505.91 56.112C506.506 55.8709 507.143 55.7495 507.786 55.7551C508.429 55.7599 509.064 55.8916 509.656 56.1432C510.248 56.3939 510.784 56.7588 511.235 57.2172C511.686 57.6756 512.042 58.2178 512.282 58.8135C512.524 59.41 512.645 60.0473 512.639 60.6901L512.517 80.3799L524.483 80.4821C525.143 80.4582 525.802 80.5684 526.419 80.8055C527.036 81.0427 527.599 81.4029 528.073 81.8644C528.547 82.3252 528.923 82.877 529.178 83.4871C529.433 84.098 529.561 84.7528 529.556 85.414C529.55 86.0752 529.41 86.7284 529.146 87.3345C528.881 87.9406 528.496 88.486 528.014 88.9396C527.532 89.3923 526.964 89.7429 526.342 89.9697C525.722 90.1973 525.061 90.2963 524.401 90.2612L512.435 90.1589L512.19 118.983C512.158 120.073 512.349 121.158 512.754 122.17C513.158 123.183 513.766 124.101 514.54 124.869C515.279 125.648 516.17 126.267 517.158 126.687C518.145 127.107 519.209 127.319 520.283 127.311H523.43C524.067 127.311 524.696 127.439 525.282 127.687C525.868 127.934 526.399 128.297 526.843 128.752C527.303 129.209 527.668 129.753 527.915 130.352C528.162 130.951 528.287 131.594 528.282 132.242C528.278 132.89 528.143 133.531 527.888 134.127C527.631 134.723 527.259 135.261 526.792 135.711C526.339 136.159 525.801 136.512 525.209 136.749C524.618 136.985 523.985 137.102 523.348 137.09H520.191C517.801 137.085 515.439 136.583 513.253 135.619C508.945 133.742 505.54 130.26 503.76 125.912C502.838 123.684 502.38 121.292 502.412 118.881L502.657 90.0663H496.454C495.812 90.0615 495.176 89.9298 494.584 89.6782C493.992 89.4275 493.456 89.0625 493.005 88.6042C492.554 88.1458 492.198 87.6036 491.957 87.0079C491.717 86.4114 491.595 85.7741 491.6 85.1313C491.606 84.4885 491.737 83.8536 491.989 83.2619C492.24 82.6702 492.605 82.1335 493.063 81.6824C493.521 81.232 494.064 80.8758 494.659 80.6347C495.256 80.3935 495.893 80.2729 496.536 80.2777H502.738L502.851 60.6086Z" fill="#A7CF9E"/>
<path d="M534.252 63.377C534.241 62.4004 534.427 61.4318 534.799 60.5294C535.172 59.6263 535.723 58.8077 536.42 58.1234C537.116 57.439 537.944 56.9032 538.854 56.547C539.763 56.1909 540.735 56.0216 541.711 56.0511C542.665 56.0432 543.612 56.2316 544.49 56.6045C545.369 56.9767 546.162 57.5261 546.82 58.2168C547.503 58.9123 548.036 59.7388 548.387 60.6476C548.739 61.5555 548.901 62.5266 548.864 63.5C548.861 64.4583 548.669 65.4061 548.297 66.2893C547.925 67.1733 547.382 67.9735 546.699 68.6459C546.015 69.3174 545.205 69.8469 544.316 70.2038C543.426 70.5608 542.475 70.7373 541.517 70.7237C540.54 70.7405 539.57 70.5568 538.667 70.1847C537.763 69.8117 536.946 69.2584 536.265 68.5572C535.594 67.8769 535.069 67.0663 534.723 66.1752C534.376 65.2848 534.217 64.3321 534.252 63.377ZM545.951 132.972C545.946 133.614 545.813 134.25 545.562 134.842C545.31 135.432 544.944 135.969 544.485 136.42C544.027 136.869 543.484 137.225 542.888 137.466C542.292 137.706 541.654 137.827 541.011 137.82C540.369 137.815 539.733 137.682 539.141 137.43C538.55 137.179 538.014 136.813 537.563 136.354C537.114 135.896 536.758 135.353 536.517 134.756C536.277 134.16 536.156 133.522 536.163 132.88L536.572 85.4785C536.582 84.1808 537.108 82.9399 538.034 82.0295C538.959 81.1192 540.209 80.6145 541.507 80.6249C542.805 80.6361 544.045 81.1623 544.956 82.0878C545.866 83.0134 546.371 84.2623 546.36 85.5607L545.951 132.972Z" fill="#A7CF9E"/>
<path d="M597.051 121.875C597.518 121.357 598.09 120.946 598.731 120.671C599.371 120.395 600.063 120.263 600.76 120.281C601.926 120.258 603.053 120.695 603.897 121.497C604.397 121.894 604.807 122.391 605.103 122.956C605.398 123.521 605.573 124.141 605.614 124.777C605.69 125.427 605.619 126.086 605.406 126.705C605.194 127.324 604.846 127.887 604.388 128.354C601.7 131.519 598.334 134.038 594.537 135.721C590.765 137.39 586.676 138.226 582.552 138.174C578.743 138.163 574.977 137.373 571.486 135.854C564.618 132.89 559.181 127.36 556.332 120.445C554.15 115.181 553.596 109.384 554.739 103.802C555.883 98.2206 558.673 93.1091 562.749 89.1267C565.406 86.5562 568.526 84.5143 571.945 83.1088C575.454 81.6539 579.223 80.9272 583.022 80.9727C587.146 80.9248 591.227 81.816 594.957 83.5784C598.703 85.3368 602.022 87.8889 604.685 91.0584C605.134 91.5327 605.472 92.1029 605.673 92.725C605.875 93.347 605.935 94.0066 605.849 94.6551C605.699 95.8848 605.111 97.0196 604.193 97.8532C603.763 98.2813 603.251 98.6198 602.687 98.8474C602.124 99.0758 601.521 99.1892 600.914 99.1812C600.207 99.1804 599.51 99.0215 598.873 98.7157C598.237 98.4098 597.677 97.965 597.235 97.414C595.489 95.3266 593.3 93.6553 590.828 92.5189C588.361 91.3778 585.678 90.7789 582.96 90.7621C580.437 90.7246 577.934 91.2045 575.603 92.1716C571.077 94.033 567.457 97.5897 565.518 102.083C564.527 104.401 564.007 106.892 563.986 109.413C563.964 111.933 564.443 114.433 565.395 116.767C567.249 121.298 570.809 124.92 575.307 126.852C577.715 127.887 580.313 128.408 582.935 128.383C585.556 128.359 588.143 127.788 590.532 126.709C593.028 125.587 595.252 123.938 597.051 121.875Z" fill="#A7CF9E"/>
<path d="M650.894 81.9841C651.535 81.9873 652.169 82.1222 652.756 82.381C653.343 82.6389 653.871 83.015 654.307 83.4862C654.776 83.9469 655.147 84.4995 655.394 85.1096C655.642 85.7197 655.763 86.3737 655.747 87.0317C655.753 87.6793 655.622 88.3206 655.363 88.9139C655.105 89.5072 654.724 90.0391 654.245 90.4751C653.795 90.9246 653.259 91.2792 652.669 91.518C652.08 91.7559 651.448 91.8741 650.812 91.8653L626.667 91.6609C625.84 91.637 625.019 91.7799 624.249 92.0825C623.48 92.3844 622.78 92.8388 622.191 93.4177C621.59 93.9775 621.111 94.6563 620.788 95.4109C620.464 96.1663 620.302 96.98 620.31 97.8017C620.274 99.2711 620.805 100.698 621.792 101.787C622.72 102.896 624.043 103.603 625.481 103.759L645.355 106.405C647.273 106.703 649.126 107.328 650.832 108.255C652.497 109.144 653.979 110.336 655.206 111.77C656.428 113.191 657.389 114.816 658.046 116.572C658.73 118.363 659.077 120.265 659.069 122.181C659.065 124.3 658.64 126.396 657.819 128.349C656.998 130.302 655.798 132.072 654.287 133.557C652.777 135.042 650.986 136.212 649.02 136.999C647.053 137.786 644.949 138.175 642.832 138.142L616.959 137.918C616.298 137.942 615.64 137.831 615.022 137.594C614.405 137.356 613.842 136.997 613.369 136.535C612.894 136.075 612.518 135.523 612.263 134.912C612.009 134.302 611.88 133.646 611.886 132.985C611.891 132.324 612.031 131.671 612.296 131.065C612.56 130.459 612.946 129.913 613.428 129.46C613.909 129.007 614.478 128.657 615.099 128.429C615.72 128.203 616.381 128.103 617.041 128.139L642.913 128.353C643.745 128.378 644.573 128.23 645.346 127.92C646.118 127.608 646.817 127.14 647.399 126.545C647.998 125.971 648.476 125.281 648.8 124.516C649.125 123.752 649.292 122.93 649.29 122.1C649.299 120.651 648.767 119.252 647.798 118.176C647.349 117.611 646.793 117.139 646.162 116.788C645.531 116.437 644.836 116.215 644.119 116.132L624.245 113.466C622.317 113.244 620.454 112.636 618.768 111.677C617.122 110.762 615.643 109.573 614.395 108.163C613.154 106.751 612.19 105.118 611.553 103.35C610.129 99.5059 610.242 95.26 611.87 91.4972C613.512 87.6538 616.603 84.6129 620.474 83.0366C622.475 82.2117 624.625 81.8044 626.789 81.8411L650.935 82.0456L650.894 81.9841Z" fill="#A7CF9E"/>
<path fill-rule="evenodd" clip-rule="evenodd" d="M116.296 37.1953L116.296 57.1276L104.365 60.1926L104.365 26.9091C104.365 21.8983 109.913 18.8759 114.123 21.5931L160.75 51.6855C165.308 54.6275 164.292 61.5662 159.082 63.0778L25.8561 101.728L57.3654 123.512L57.3654 98.3462L69.2962 94.7916L69.2962 134.199C69.2962 139.3 63.5679 142.304 59.3713 139.403L9.37158 104.836C4.98664 101.804 6.08646 95.0404 11.2067 93.5549L143.952 55.0443L116.296 37.1953Z" fill="#A7CF9E"/>
<path fill-rule="evenodd" clip-rule="evenodd" d="M56.4016 74.4111L56.4016 34.3171L69.1985 28.9111L69.1985 70.8071L56.4016 74.4111Z" fill="#A7CF9E"/>
<path fill-rule="evenodd" clip-rule="evenodd" d="M118.015 80.0987L118.015 120.193L105.218 125.599L105.218 83.7026L118.015 80.0987Z" fill="#A7CF9E"/>
</svg>
