<svg width="16" height="12" viewBox="0 0 16 12" fill="none" xmlns="http://www.w3.org/2000/svg">
<path d="M14.5 12H1.5C0.67 12 0 11.33 0 10.5V1.5C0 0.67 0.67 0 1.5 0H14.5C15.33 0 16 0.67 16 1.5V10.5C16 11.33 15.33 12 14.5 12ZM1.5 1C1.22 1 1 1.22 1 1.5V10.5C1 10.78 1.22 11 1.5 11H14.5C14.78 11 15 10.78 15 10.5V1.5C15 1.22 14.78 1 14.5 1H1.5Z" fill="white"/>
<path d="M8.00005 7.95963C7.30005 7.95963 6.66005 7.67963 6.18005 7.16963L0.930045 1.58963C0.740045 1.38963 0.750045 1.06963 0.950045 0.87963C1.15005 0.68963 1.47005 0.69963 1.66005 0.89963L6.91005 6.47963C7.48005 7.08963 8.52005 7.08963 9.09005 6.47963L14.34 0.90963C14.53 0.70963 14.85 0.69963 15.05 0.88963C15.25 1.07963 15.26 1.39963 15.07 1.59963L9.82005 7.17963C9.34005 7.68963 8.70005 7.96963 8.00005 7.96963V7.95963Z" fill="white"/>
</svg>
