<svg width="40" height="40" viewBox="0 0 40 40" fill="none" xmlns="http://www.w3.org/2000/svg">
<path d="M18.5905 10.4797H23.3985L28.6714 5.19087C28.8204 5.04065 28.9976 4.92142 29.1929 4.84005C29.3882 4.75869 29.5977 4.7168 29.8093 4.7168C30.0208 4.7168 30.2303 4.75869 30.4256 4.84005C30.6209 4.92142 30.7982 5.04065 30.9472 5.19087L35.0821 9.3418C35.3806 9.64209 35.5481 10.0483 35.5481 10.4717C35.5481 10.8951 35.3806 11.3013 35.0821 11.6016L31.4119 15.2877H18.5905V18.4931C18.5905 18.9182 18.4217 19.3258 18.1211 19.6264C17.8205 19.9269 17.4129 20.0958 16.9878 20.0958C16.5628 20.0958 16.1551 19.9269 15.8546 19.6264C15.554 19.3258 15.3852 18.9182 15.3852 18.4931V13.6851C15.3852 12.8349 15.7229 12.0197 16.324 11.4185C16.9251 10.8174 17.7404 10.4797 18.5905 10.4797ZM8.97444 18.4931V24.9038L5.3043 28.5739C5.0058 28.8742 4.83826 29.2804 4.83826 29.7038C4.83826 30.1272 5.0058 30.5334 5.3043 30.8337L9.43921 34.9847C9.5882 35.1349 9.76546 35.2541 9.96076 35.3355C10.1561 35.4168 10.3655 35.4587 10.5771 35.4587C10.7887 35.4587 10.9982 35.4168 11.1935 35.3355C11.3888 35.2541 11.566 35.1349 11.715 34.9847L18.5905 28.1092H25.0012C25.4263 28.1092 25.8339 27.9403 26.1345 27.6398C26.435 27.3392 26.6039 26.9315 26.6039 26.5065V24.9038H28.2066C28.6316 24.9038 29.0393 24.735 29.3398 24.4344C29.6404 24.1338 29.8093 23.7262 29.8093 23.3011V21.6985H31.4119C31.837 21.6985 32.2446 21.5296 32.5452 21.229C32.8458 20.9285 33.0146 20.5208 33.0146 20.0958V18.4931H21.7959V20.0958C21.7959 20.9459 21.4582 21.7612 20.857 22.3623C20.2559 22.9634 19.4406 23.3011 18.5905 23.3011H15.3852C14.535 23.3011 13.7197 22.9634 13.1186 22.3623C12.5175 21.7612 12.1798 20.9459 12.1798 20.0958V15.2877L8.97444 18.4931Z" fill="url(#paint0_linear_4_229)"/>
<defs>
<linearGradient id="paint0_linear_4_229" x1="20.1932" y1="4.7168" x2="20.1932" y2="35.4587" gradientUnits="userSpaceOnUse">
<stop stop-color="#A7CF9E"/>
<stop offset="1" stop-color="#D2D2AF"/>
</linearGradient>
</defs>
</svg>
