<svg width="19" height="17" viewBox="0 0 19 17" fill="none" xmlns="http://www.w3.org/2000/svg">
<path d="M0 1.70972C0 0.987014 0.606473 0.403137 1.35714 0.403137H17.6429C18.3935 0.403137 19 0.987014 19 1.70972C19 2.43242 18.3935 3.01629 17.6429 3.01629H1.35714C0.606473 3.01629 0 2.43242 0 1.70972ZM0 8.24261C0 7.5199 0.606473 6.93603 1.35714 6.93603H17.6429C18.3935 6.93603 19 7.5199 19 8.24261C19 8.96531 18.3935 9.54918 17.6429 9.54918H1.35714C0.606473 9.54918 0 8.96531 0 8.24261ZM19 14.7755C19 15.4982 18.3935 16.0821 17.6429 16.0821H1.35714C0.606473 16.0821 0 15.4982 0 14.7755C0 14.0528 0.606473 13.4689 1.35714 13.4689H17.6429C18.3935 13.4689 19 14.0528 19 14.7755Z" fill="#D2D2AF"/>
</svg>
