<svg width="12" height="12" viewBox="0 0 12 12" fill="none" xmlns="http://www.w3.org/2000/svg">
<path d="M8.23317 8.19944L8.51376 7.90559L7.86213 7.21541L7.58277 7.50926L8.23317 8.19944ZM9.4546 7.78235L10.6305 8.45631L11.0704 7.60137L9.89517 6.92805L9.4546 7.78235ZM10.8563 9.79516L9.98255 10.7117L10.6329 11.4013L11.5067 10.4853L10.8563 9.79516ZM9.44968 11.0062C8.55745 11.0944 6.24998 11.0159 3.75052 8.39663L3.0995 9.08616C5.82663 11.9448 8.4227 12.0849 9.53582 11.9753L9.44968 11.0062ZM3.75052 8.39663C1.36859 5.89927 0.973549 3.79954 0.924323 2.88817L0.00256304 2.9433C0.0640957 4.09014 0.553281 6.41755 3.0995 9.08616L3.75052 8.39663ZM4.59659 4.38788L4.77319 4.20236L4.12341 3.51283L3.94681 3.6977L4.59659 4.38788ZM4.91349 1.84446L4.13817 0.752109L3.39917 1.33591L4.17448 2.42761L4.91349 1.84446ZM1.52857 0.514049L0.56251 1.52597L1.21353 2.21615L2.17897 1.20423L1.52857 0.514049ZM4.2717 4.04279C3.94558 3.6977 3.94558 3.6977 3.94558 3.699H3.94435L3.9425 3.70159C3.91326 3.73267 3.88708 3.76679 3.86435 3.80343C3.83113 3.85533 3.79482 3.92344 3.76406 4.00971C3.68916 4.23241 3.67049 4.47182 3.70991 4.70443C3.79236 5.26552 4.1591 6.00695 5.09808 6.99162L5.7491 6.30144C4.8698 5.38034 4.66059 4.81989 4.62182 4.55524C4.60336 4.42939 4.62244 4.36712 4.62798 4.35285C4.63167 4.3442 4.63167 4.34291 4.62798 4.34896C4.62249 4.35791 4.61631 4.36637 4.60951 4.37426L4.60336 4.38074L4.59721 4.38658L4.2717 4.04279ZM5.09808 6.99162C6.03769 7.9763 6.7447 8.36031 7.27757 8.44593C7.55016 8.49004 7.76983 8.45501 7.93659 8.3895C8.02999 8.35348 8.11727 8.30179 8.19502 8.23641L8.22579 8.20722L8.2301 8.20333L8.23194 8.20138L8.23256 8.20009C8.23256 8.20009 8.23317 8.19944 7.90767 7.85435C7.58154 7.50926 7.58339 7.50861 7.58339 7.50861L7.58462 7.50731L7.58585 7.50601L7.58954 7.50277L7.5957 7.49629L7.61908 7.47683C7.62482 7.47293 7.62339 7.47337 7.61477 7.47812C7.59939 7.48396 7.53909 7.50407 7.41787 7.48461C7.16312 7.44309 6.62779 7.22255 5.7491 6.30144L5.09808 6.99162ZM4.13817 0.751461C3.51054 -0.130725 2.27743 -0.270836 1.52857 0.514049L2.17897 1.20423C2.50633 0.861085 3.0872 0.896762 3.39917 1.33591L4.13817 0.751461ZM0.924938 2.88881C0.912631 2.66438 1.01047 2.42956 1.21353 2.2168L0.561895 1.52662C0.231465 1.873 -0.0288186 2.36339 0.00256304 2.9433L0.924938 2.88881ZM9.98255 10.7117C9.81395 10.8895 9.63181 10.9893 9.45029 11.0069L9.53582 11.9753C9.98809 11.9306 10.3579 11.6906 10.6336 11.4019L9.98255 10.7117ZM4.77319 4.20236C5.37929 3.56732 5.42421 2.56383 4.9141 1.84511L4.17509 2.42826C4.42307 2.77789 4.38615 3.2365 4.12279 3.51348L4.77319 4.20236ZM10.6311 8.45696C11.1338 8.74497 11.212 9.42347 10.8569 9.7958L11.5079 10.4853C12.3325 9.62067 12.0784 8.17868 11.0711 7.60202L10.6311 8.45696ZM8.51376 7.90624C8.75005 7.65845 9.13032 7.59748 9.45521 7.78299L9.89579 6.9287C9.22877 6.54599 8.40177 6.65172 7.86275 7.21606L8.51376 7.90624Z" fill="white"/>
</svg>
