<svg width="38" height="38" viewBox="0 0 38 38" fill="none" xmlns="http://www.w3.org/2000/svg">
<path d="M11.7999 2.16883C14.0566 1.24003 16.4729 0.76053 18.9132 0.757202C21.3462 0.757202 23.7606 1.24013 26.0265 2.16883C28.2737 3.09753 30.3167 4.47201 32.044 6.19939C33.7712 7.92678 35.1456 9.96992 36.0742 12.2174C37.0028 14.4834 37.4857 16.898 37.4857 19.3312C37.4857 24.2533 35.5356 28.9897 32.044 32.4631C30.3216 34.1904 28.2749 35.5604 26.0215 36.4943C23.7681 37.4283 21.3524 37.9078 18.9132 37.9053C16.4729 37.9019 14.0566 37.4224 11.7999 36.4936C9.54907 35.558 7.50437 34.1885 5.78245 32.4631C4.05524 30.7405 2.68536 28.6937 1.7515 26.4401C0.817631 24.1866 0.338188 21.7707 0.340708 19.3312C0.340708 14.4091 2.29082 9.67273 5.78245 6.19939C7.50969 4.47201 9.55267 3.09753 11.7999 2.16883ZM18.9132 28.6182L21.8105 22.2659L28.1995 19.3312L21.8105 16.4337L18.9132 10.0442L15.9973 16.4337L9.62696 19.3312L15.9973 22.2659L18.9132 28.6182Z" fill="#1F2230"/>
</svg>
