<svg width="40" height="39" viewBox="0 0 40 39" fill="none" xmlns="http://www.w3.org/2000/svg">
<path d="M33.0147 35.7428L26.8283 33.2586C27.9502 30.8065 28.7516 28.2743 29.2484 25.694L33.0147 35.7428ZM13.5582 33.2586L7.37183 35.7428L11.1381 25.694C11.635 28.2743 12.4363 30.8065 13.5582 33.2586ZM20.1933 3.68921C20.1933 3.68921 28.2066 6.89457 28.2066 19.716C28.2066 24.6843 27.0046 28.9314 25.5302 32.265C25.2739 32.8268 24.8608 33.3027 24.3405 33.6354C23.8202 33.968 23.2148 34.1433 22.5973 34.1401H17.7892C17.1717 34.1433 16.5664 33.968 16.0461 33.6354C15.5257 33.3027 15.1126 32.8268 14.8563 32.265C13.3979 28.9314 12.1799 24.6843 12.1799 19.716C12.1799 6.89457 20.1933 3.68921 20.1933 3.68921ZM20.1933 19.716C21.9562 19.716 23.3986 18.2736 23.3986 16.5106C23.3986 14.7477 21.9562 13.3053 20.1933 13.3053C18.4303 13.3053 16.9879 14.7477 16.9879 16.5106C16.9879 18.2736 18.4303 19.716 20.1933 19.716Z" fill="url(#paint0_linear_4_237)"/>
<defs>
<linearGradient id="paint0_linear_4_237" x1="20.1933" y1="3.68921" x2="20.1933" y2="35.7428" gradientUnits="userSpaceOnUse">
<stop stop-color="#A7CF9E"/>
<stop offset="1" stop-color="#D2D2AF"/>
</linearGradient>
</defs>
</svg>
