<svg width="30" height="30" viewBox="0 0 30 30" fill="none" xmlns="http://www.w3.org/2000/svg">
<path d="M13.5905 6.21924V10.7548L9.31132 15.034L13.5905 19.3131V23.8487L4.77574 15.034M16.7958 6.10705L25.7227 15.034L16.7958 23.9609V19.4253L21.1872 15.034L16.7958 10.6426M3.9744 0.609863C3.12429 0.609863 2.30899 0.947569 1.70787 1.54869C1.10675 2.14981 0.769043 2.96511 0.769043 3.81522V26.2527C0.769043 27.1028 1.10675 27.9181 1.70787 28.5193C2.30899 29.1204 3.12429 29.4581 3.9744 29.4581H26.4119C27.262 29.4581 28.0773 29.1204 28.6784 28.5193C29.2796 27.9181 29.6173 27.1028 29.6173 26.2527V3.81522C29.6173 2.96511 29.2796 2.14981 28.6784 1.54869C28.0773 0.947569 27.262 0.609863 26.4119 0.609863H3.9744Z" fill="url(#paint0_linear_4_249)"/>
<defs>
<linearGradient id="paint0_linear_4_249" x1="15.1932" y1="0.609863" x2="15.1932" y2="29.4581" gradientUnits="userSpaceOnUse">
<stop stop-color="#A7CF9E"/>
<stop offset="1" stop-color="#D2D2AF"/>
</linearGradient>
</defs>
</svg>
